<svg width="162" height="50" viewBox="0 0 162 50" fill="none" xmlns="http://www.w3.org/2000/svg">
<rect x="0.5" y="0.5" width="161" height="49" rx="24.5" stroke="white"/>
<path d="M86.1643 25.8837C83.8123 25.8837 81.8953 27.6727 81.8953 30.1367C81.8953 32.5857 83.8123 34.3897 86.1643 34.3897C88.5173 34.3897 90.4343 32.5857 90.4343 30.1367C90.4333 27.6727 88.5163 25.8837 86.1643 25.8837ZM86.1643 32.7157C84.8753 32.7157 83.7643 31.6527 83.7643 30.1377C83.7643 28.6067 84.8763 27.5597 86.1643 27.5597C87.4533 27.5597 88.5643 28.6067 88.5643 30.1377C88.5643 31.6517 87.4533 32.7157 86.1643 32.7157ZM76.8503 25.8837C74.4983 25.8837 72.5813 27.6727 72.5813 30.1367C72.5813 32.5857 74.4983 34.3897 76.8503 34.3897C79.2033 34.3897 81.1203 32.5857 81.1203 30.1367C81.1203 27.6727 79.2033 25.8837 76.8503 25.8837ZM76.8503 32.7157C75.5613 32.7157 74.4503 31.6527 74.4503 30.1377C74.4503 28.6067 75.5623 27.5597 76.8503 27.5597C78.1393 27.5597 79.2503 28.6067 79.2503 30.1377C79.2513 31.6517 78.1393 32.7157 76.8503 32.7157ZM65.7723 27.1897V28.9937H70.0903C69.9613 30.0087 69.6233 30.7497 69.1073 31.2647C68.4793 31.8927 67.4963 32.5857 65.7723 32.5857C63.1143 32.5857 61.0363 30.4427 61.0363 27.7847C61.0363 25.1267 63.1143 22.9837 65.7723 22.9837C67.2063 22.9837 68.2533 23.5477 69.0263 24.2727L70.2993 22.9997C69.2193 21.9687 67.7863 21.1797 65.7723 21.1797C62.1313 21.1797 59.0703 24.1437 59.0703 27.7847C59.0703 31.4257 62.1313 34.3897 65.7723 34.3897C67.7373 34.3897 69.2203 33.7447 70.3793 32.5367C71.5713 31.3447 71.9423 29.6687 71.9423 28.3157C71.9423 27.8977 71.9103 27.5107 71.8453 27.1887H65.7723V27.1897ZM111.08 28.5907C110.726 27.6407 109.646 25.8837 107.439 25.8837C105.248 25.8837 103.427 27.6077 103.427 30.1367C103.427 32.5207 105.232 34.3897 107.648 34.3897C109.597 34.3897 110.725 33.1977 111.193 32.5047L109.743 31.5377C109.26 32.2467 108.599 32.7137 107.648 32.7137C106.698 32.7137 106.021 32.2787 105.586 31.4247L111.273 29.0727L111.08 28.5907ZM105.28 30.0087C105.232 28.3647 106.553 27.5277 107.504 27.5277C108.245 27.5277 108.873 27.8987 109.083 28.4297L105.28 30.0087ZM100.657 34.1327H102.525V21.6317H100.657V34.1327ZM97.5953 26.8347H97.5313C97.1123 26.3347 96.3063 25.8837 95.2923 25.8837C93.1653 25.8837 91.2163 27.7527 91.2163 30.1537C91.2163 32.5377 93.1653 34.3907 95.2923 34.3907C96.3073 34.3907 97.1123 33.9397 97.5313 33.4247H97.5953V34.0367C97.5953 35.6637 96.7253 36.5337 95.3243 36.5337C94.1803 36.5337 93.4713 35.7127 93.1813 35.0197L91.5543 35.6967C92.0213 36.8237 93.2613 38.2097 95.3243 38.2097C97.5153 38.2097 99.3683 36.9207 99.3683 33.7787V26.1427H97.5963V26.8347H97.5953ZM95.4533 32.7157C94.1643 32.7157 93.0853 31.6357 93.0853 30.1537C93.0853 28.6547 94.1643 27.5597 95.4533 27.5597C96.7253 27.5597 97.7243 28.6547 97.7243 30.1537C97.7243 31.6357 96.7253 32.7157 95.4533 32.7157ZM119.834 21.6317H115.363V34.1327H117.228V29.3967H119.833C121.901 29.3967 123.935 27.8997 123.935 25.5147C123.935 23.1297 121.902 21.6317 119.834 21.6317ZM119.882 27.6567H117.228V23.3717H119.882C121.277 23.3717 122.069 24.5267 122.069 25.5147C122.069 26.4827 121.277 27.6567 119.882 27.6567ZM131.414 25.8617C130.063 25.8617 128.664 26.4567 128.085 27.7757L129.741 28.4667C130.095 27.7757 130.755 27.5497 131.446 27.5497C132.411 27.5497 133.392 28.1287 133.408 29.1577V29.2867C133.07 29.0937 132.346 28.8047 131.462 28.8047C129.677 28.8047 127.859 29.7857 127.859 31.6187C127.859 33.2917 129.323 34.3687 130.963 34.3687C132.217 34.3687 132.909 33.8057 133.343 33.1457H133.407V34.1107H135.209V29.3177C135.21 27.0997 133.552 25.8617 131.414 25.8617ZM131.188 32.7127C130.578 32.7127 129.725 32.4067 129.725 31.6507C129.725 30.6857 130.787 30.3157 131.704 30.3157C132.523 30.3157 132.91 30.4927 133.408 30.7337C133.263 31.8927 132.266 32.7127 131.188 32.7127ZM141.771 26.1347L139.632 31.5547H139.568L137.348 26.1347H135.338L138.667 33.7097L136.769 37.9237H138.715L143.846 26.1347H141.771ZM124.965 34.1327H126.83V21.6317H124.965V34.1327Z" fill="white"/>
<path d="M65.4449 14.378C65.4449 15.216 65.1969 15.883 64.6999 16.381C64.1359 16.973 63.3999 17.269 62.4959 17.269C61.6299 17.269 60.8929 16.969 60.2879 16.369C59.6819 15.768 59.3789 15.024 59.3789 14.136C59.3789 13.247 59.6819 12.503 60.2879 11.903C60.8929 11.302 61.6299 11.002 62.4959 11.002C62.9259 11.002 63.3369 11.086 63.7269 11.253C64.1179 11.421 64.4309 11.644 64.6649 11.923L64.1379 12.451C63.7409 11.976 63.1939 11.739 62.4949 11.739C61.8629 11.739 61.3169 11.961 60.8559 12.405C60.3949 12.849 60.1649 13.426 60.1649 14.135C60.1649 14.844 60.3949 15.421 60.8559 15.865C61.3169 16.309 61.8629 16.531 62.4949 16.531C63.1649 16.531 63.7239 16.308 64.1709 15.861C64.4609 15.57 64.6289 15.165 64.6739 14.646H62.4949V13.925H65.4019C65.4319 14.082 65.4449 14.233 65.4449 14.378Z" fill="white"/>
<path d="M70.055 11.872H67.323V13.774H69.787V14.495H67.323V16.397H70.055V17.135H66.552V11.135H70.055V11.872Z" fill="white"/>
<path d="M73.3059 17.135H72.5349V11.872H70.8589V11.135H74.9819V11.872H73.3059V17.135Z" fill="white"/>
<path d="M77.9648 17.135V11.135H78.7358V17.135H77.9648Z" fill="white"/>
<path d="M82.155 17.135H81.384V11.872H79.708V11.135H83.831V11.872H82.155V17.135Z" fill="white"/>
<path d="M91.6358 16.36C91.0458 16.966 90.3128 17.269 89.4358 17.269C88.5588 17.269 87.8258 16.966 87.2368 16.36C86.6468 15.754 86.3528 15.012 86.3528 14.135C86.3528 13.258 86.6468 12.516 87.2368 11.91C87.8258 11.304 88.5588 11 89.4358 11C90.3078 11 91.0398 11.305 91.6318 11.914C92.2238 12.523 92.5198 13.263 92.5198 14.135C92.5198 15.012 92.2248 15.754 91.6358 16.36ZM87.8058 15.857C88.2498 16.307 88.7928 16.531 89.4358 16.531C90.0788 16.531 90.6228 16.306 91.0658 15.857C91.5098 15.407 91.7328 14.833 91.7328 14.135C91.7328 13.437 91.5098 12.863 91.0658 12.413C90.6228 11.963 90.0788 11.739 89.4358 11.739C88.7928 11.739 88.2498 11.964 87.8058 12.413C87.3628 12.863 87.1398 13.437 87.1398 14.135C87.1398 14.833 87.3628 15.407 87.8058 15.857Z" fill="white"/>
<path d="M93.6018 17.135V11.135H94.5398L97.4558 15.802H97.4888L97.4558 14.646V11.135H98.2268V17.135H97.4218L94.3708 12.241H94.3378L94.3708 13.397V17.135H93.6018Z" fill="white"/>
<path d="M65.4449 14.378C65.4449 15.216 65.1969 15.883 64.6999 16.381C64.1359 16.973 63.3999 17.269 62.4959 17.269C61.6299 17.269 60.8929 16.969 60.2879 16.369C59.6819 15.768 59.3789 15.024 59.3789 14.136C59.3789 13.247 59.6819 12.503 60.2879 11.903C60.8929 11.302 61.6299 11.002 62.4959 11.002C62.9259 11.002 63.3369 11.086 63.7269 11.253C64.1179 11.421 64.4309 11.644 64.6649 11.923L64.1379 12.451C63.7409 11.976 63.1939 11.739 62.4949 11.739C61.8629 11.739 61.3169 11.961 60.8559 12.405C60.3949 12.849 60.1649 13.426 60.1649 14.135C60.1649 14.844 60.3949 15.421 60.8559 15.865C61.3169 16.309 61.8629 16.531 62.4949 16.531C63.1649 16.531 63.7239 16.308 64.1709 15.861C64.4609 15.57 64.6289 15.165 64.6739 14.646H62.4949V13.925H65.4019C65.4319 14.082 65.4449 14.233 65.4449 14.378Z" stroke="white" stroke-width="0.2" stroke-miterlimit="10"/>
<path d="M70.055 11.872H67.323V13.774H69.787V14.495H67.323V16.397H70.055V17.135H66.552V11.135H70.055V11.872Z" stroke="white" stroke-width="0.2" stroke-miterlimit="10"/>
<path d="M73.3059 17.135H72.5349V11.872H70.8589V11.135H74.9819V11.872H73.3059V17.135Z" stroke="white" stroke-width="0.2" stroke-miterlimit="10"/>
<path d="M77.9648 17.135V11.135H78.7358V17.135H77.9648Z" stroke="white" stroke-width="0.2" stroke-miterlimit="10"/>
<path d="M82.155 17.135H81.384V11.872H79.708V11.135H83.831V11.872H82.155V17.135Z" stroke="white" stroke-width="0.2" stroke-miterlimit="10"/>
<path d="M91.6358 16.36C91.0458 16.966 90.3128 17.269 89.4358 17.269C88.5588 17.269 87.8258 16.966 87.2368 16.36C86.6468 15.754 86.3528 15.012 86.3528 14.135C86.3528 13.258 86.6468 12.516 87.2368 11.91C87.8258 11.304 88.5588 11 89.4358 11C90.3078 11 91.0398 11.305 91.6318 11.914C92.2238 12.523 92.5198 13.263 92.5198 14.135C92.5198 15.012 92.2248 15.754 91.6358 16.36ZM87.8058 15.857C88.2498 16.307 88.7928 16.531 89.4358 16.531C90.0788 16.531 90.6228 16.306 91.0658 15.857C91.5098 15.407 91.7328 14.833 91.7328 14.135C91.7328 13.437 91.5098 12.863 91.0658 12.413C90.6228 11.963 90.0788 11.739 89.4358 11.739C88.7928 11.739 88.2498 11.964 87.8058 12.413C87.3628 12.863 87.1398 13.437 87.1398 14.135C87.1398 14.833 87.3628 15.407 87.8058 15.857Z" stroke="white" stroke-width="0.2" stroke-miterlimit="10"/>
<path d="M93.6018 17.135V11.135H94.5398L97.4558 15.802H97.4888L97.4558 14.646V11.135H98.2268V17.135H97.4218L94.3708 12.241H94.3378L94.3708 13.397V17.135H93.6018Z" stroke="white" stroke-width="0.2" stroke-miterlimit="10"/>
<path fill-rule="evenodd" clip-rule="evenodd" d="M28.1826 12.1007C28.065 12.3679 28 12.695 28 13.0755V35.1915C28 35.5731 28.0651 35.9005 28.1831 36.1676L40.2155 24.1335L28.1826 12.1007ZM28.8774 36.8875C29.3236 37.079 29.906 37.0186 30.541 36.6585L44.6966 28.6146L40.9226 24.8406L28.8774 36.8875ZM45.599 28.1028L50.042 25.5785C51.439 24.7835 51.439 23.4845 50.042 22.6905L45.5975 20.165L41.6296 24.1335L45.599 28.1028ZM44.6957 19.6526L30.541 11.6095C29.9057 11.2485 29.3231 11.1886 28.8768 11.3806L40.9225 23.4264L44.6957 19.6526Z" fill="white"/>
</svg>
