<svg width="28" height="28" viewBox="0 0 28 28" fill="none" xmlns="http://www.w3.org/2000/svg">
<path d="M27.1552 13.7931C27.1552 21.1728 21.1728 27.1552 13.7931 27.1552C6.41344 27.1552 0.431035 21.1728 0.431035 13.7931C0.431035 6.41344 6.41344 0.431035 13.7931 0.431035C21.1728 0.431035 27.1552 6.41344 27.1552 13.7931Z" fill="white" stroke="white" stroke-width="0.862069"/>
<path d="M15.0734 11.0546C14.9595 11.0546 14.8623 11.095 14.7819 11.1759C14.7015 11.2567 14.6613 11.3544 14.6613 11.4689V12.4491C14.6613 12.476 14.6697 12.4996 14.6865 12.5198C14.7032 12.54 14.7283 12.5501 14.7618 12.5501H16.2693C16.3832 12.5501 16.4803 12.5905 16.5607 12.6714C16.6411 12.7522 16.6813 12.8499 16.6813 12.9644V13.985C16.6813 14.0995 16.6411 14.1972 16.5607 14.278C16.4803 14.3589 16.3832 14.3993 16.2693 14.3993H14.7719C14.7384 14.3993 14.7133 14.4094 14.6965 14.4296C14.6798 14.4498 14.6714 14.4768 14.6714 14.5105V17.9764C14.6714 18.0909 14.6312 18.1886 14.5508 18.2695C14.4704 18.3503 14.3732 18.3907 14.2593 18.3907H13.2343C13.1271 18.3907 13.0316 18.3503 12.9479 18.2695C12.8641 18.1886 12.8222 18.0909 12.8222 17.9764V14.5105C12.8222 14.4768 12.8139 14.4498 12.7971 14.4296C12.7804 14.4094 12.7553 14.3993 12.7218 14.3993H11.5761C11.4622 14.3993 11.3651 14.3589 11.2847 14.278C11.2043 14.1972 11.1641 14.0995 11.1641 13.985V12.9644C11.1641 12.8499 11.2043 12.7522 11.2847 12.6714C11.3651 12.5905 11.4622 12.5501 11.5761 12.5501H12.7218C12.7553 12.5501 12.7804 12.54 12.7971 12.5198C12.8139 12.4996 12.8222 12.476 12.8222 12.4491V11.0445C12.8222 10.5325 13.0015 10.0963 13.3599 9.73592C13.7183 9.37551 14.1521 9.19531 14.6613 9.19531H16.2592C16.3731 9.19531 16.4703 9.23573 16.5507 9.31657C16.6311 9.39741 16.6713 9.49509 16.6713 9.60961V10.6403C16.6713 10.7548 16.6311 10.8525 16.5507 10.9333C16.4703 11.0142 16.3731 11.0546 16.2592 11.0546H15.0734Z" fill="#0C111A"/>
</svg>
