<svg width="29" height="28" viewBox="0 0 29 28" fill="none" xmlns="http://www.w3.org/2000/svg">
<path d="M27.7411 13.7931C27.7411 21.1728 21.7587 27.1552 14.379 27.1552C6.99937 27.1552 1.01697 21.1728 1.01697 13.7931C1.01697 6.41344 6.99937 0.431035 14.379 0.431035C21.7587 0.431035 27.7411 6.41344 27.7411 13.7931Z" fill="white" stroke="white" stroke-width="0.862069"/>
<path d="M12.0448 18.3907C11.7165 18.3907 11.3921 18.3675 11.0717 18.321C10.7512 18.2745 10.4405 18.2067 10.1395 18.1175C9.8386 18.0284 9.54743 17.918 9.26604 17.7862C8.98464 17.6545 8.71888 17.5033 8.46875 17.3328C8.55473 17.3483 8.64267 17.358 8.73256 17.3619C8.82245 17.3658 8.9182 17.3677 9.01982 17.3677C9.56698 17.3677 10.0868 17.2805 10.5792 17.1061C11.0717 16.9318 11.5211 16.6896 11.9276 16.3796C11.4117 16.3718 10.9544 16.2168 10.5558 15.9146C10.1571 15.6123 9.88354 15.2326 9.73503 14.7753C9.80538 14.7908 9.87768 14.8025 9.95194 14.8102C10.0262 14.818 10.1024 14.8218 10.1806 14.8218C10.2822 14.8218 10.3858 14.8141 10.4913 14.7986C10.5968 14.7831 10.6965 14.7637 10.7903 14.7405C10.2587 14.632 9.81515 14.3665 9.4595 13.9441C9.10384 13.5218 8.92602 13.0277 8.92602 12.4619C8.92602 12.4619 8.92602 12.46 8.92602 12.4561C8.92602 12.4523 8.92602 12.4464 8.92602 12.4387C9.08235 12.5239 9.24845 12.5918 9.42432 12.6421C9.60019 12.6925 9.78584 12.7216 9.98125 12.7293C9.66077 12.5201 9.40673 12.2469 9.21914 11.9098C9.03154 11.5726 8.93774 11.2026 8.93774 10.7996C8.93774 10.5826 8.96315 10.3772 9.01395 10.1834C9.06476 9.98969 9.14097 9.80757 9.24259 9.63706C9.5318 9.98582 9.85618 10.3036 10.2157 10.5903C10.5675 10.8771 10.9485 11.1231 11.3589 11.3285C11.7693 11.5339 12.2011 11.6986 12.6545 11.8226C13.1157 11.9466 13.5886 12.0163 14.0732 12.0318C14.0576 11.9543 14.0439 11.871 14.0322 11.7819C14.0204 11.6928 14.0146 11.6017 14.0146 11.5087C14.0146 11.1909 14.0732 10.8926 14.1905 10.6136C14.3155 10.3268 14.4836 10.0788 14.6946 9.86956C14.9057 9.66031 15.1558 9.49369 15.445 9.36969C15.7264 9.25344 16.0273 9.19531 16.3478 9.19531C16.6839 9.19531 16.9985 9.26119 17.2917 9.39294C17.5848 9.52469 17.8408 9.70294 18.0596 9.92769C18.3254 9.88119 18.5833 9.8095 18.8335 9.71263C19.0836 9.61575 19.322 9.50144 19.5487 9.36969C19.4549 9.64094 19.3181 9.887 19.1383 10.1079C18.9585 10.3288 18.7514 10.5128 18.5169 10.6601C18.7514 10.6291 18.982 10.5826 19.2087 10.5206C19.4354 10.4586 19.6503 10.3811 19.8535 10.2881C19.6972 10.5206 19.5213 10.7376 19.3259 10.9391C19.1305 11.1406 18.9195 11.3227 18.6928 11.4854C18.7006 11.5319 18.7045 11.5823 18.7045 11.6366C18.7045 11.6908 18.7045 11.7412 18.7045 11.7877C18.7045 12.555 18.5599 13.3299 18.2707 14.1127C17.9815 14.8955 17.5555 15.6046 16.9927 16.2401C16.4299 16.8756 15.7342 17.3948 14.9057 17.7978C14.0771 18.1931 13.1235 18.3907 12.0448 18.3907Z" fill="#0C111A"/>
</svg>
