<svg width="28" height="28" viewBox="0 0 28 28" fill="none" xmlns="http://www.w3.org/2000/svg">
<path d="M27.327 13.7931C27.327 21.1728 21.3446 27.1552 13.965 27.1552C6.58531 27.1552 0.60291 21.1728 0.60291 13.7931C0.60291 6.41344 6.58531 0.431035 13.965 0.431035C21.3446 0.431035 27.327 6.41344 27.327 13.7931Z" fill="white" stroke="white" stroke-width="0.862069"/>
<path d="M18.8308 12.1803C18.8377 12.4311 18.8429 12.654 18.8464 12.8491C18.8499 13.0441 18.8517 13.4551 18.8517 14.0821C18.8517 14.709 18.8499 15.12 18.8464 15.3151C18.8429 15.5102 18.8377 15.7296 18.8308 15.9734C18.8168 16.2242 18.7907 16.4367 18.7524 16.6108C18.7141 16.785 18.667 16.9452 18.6113 17.0915C18.5556 17.2447 18.4859 17.3875 18.4023 17.5199C18.3187 17.6523 18.2108 17.7811 18.0784 17.9065C17.953 18.0389 17.8241 18.1469 17.6918 18.2305C17.5594 18.3141 17.4166 18.3837 17.2634 18.4394C17.1171 18.4952 16.9568 18.5422 16.7827 18.5805C16.6085 18.6188 16.3995 18.6449 16.1557 18.6589C15.9049 18.6658 15.682 18.6711 15.487 18.6746C15.2919 18.678 14.8809 18.6798 14.254 18.6798C13.627 18.6798 13.216 18.678 13.0209 18.6746C12.8259 18.6711 12.6064 18.6658 12.3626 18.6589C12.1118 18.6449 11.8994 18.6188 11.7252 18.5805C11.5511 18.5422 11.3908 18.4952 11.2445 18.4394C11.0913 18.3837 10.9485 18.3141 10.8161 18.2305C10.6838 18.1469 10.5549 18.0389 10.4295 17.9065C10.2971 17.7811 10.1892 17.6523 10.1056 17.5199C10.022 17.3875 9.95231 17.2447 9.89658 17.0915C9.84085 16.9452 9.79383 16.785 9.75552 16.6108C9.71721 16.4367 9.69108 16.2277 9.67715 15.9839C9.67018 15.7331 9.66496 15.5102 9.66147 15.3151C9.65799 15.12 9.65625 14.709 9.65625 14.0821C9.65625 13.4551 9.65799 13.0441 9.66147 12.8491C9.66496 12.654 9.67018 12.4346 9.67715 12.1907C9.69108 11.94 9.71721 11.7275 9.75552 11.5533C9.79383 11.3792 9.84085 11.219 9.89658 11.0727C9.95231 10.9194 10.022 10.7766 10.1056 10.6442C10.1892 10.5119 10.2971 10.383 10.4295 10.2576C10.5549 10.1253 10.6838 10.0173 10.8161 9.9337C10.9485 9.8501 11.0913 9.78044 11.2445 9.72471C11.3908 9.66898 11.5511 9.62196 11.7252 9.58364C11.8994 9.54533 12.1084 9.51921 12.3522 9.50527C12.603 9.49831 12.8259 9.49308 13.0209 9.4896C13.216 9.48612 13.627 9.48438 14.254 9.48438C14.8809 9.48438 15.2919 9.48612 15.487 9.4896C15.682 9.49308 15.9015 9.49831 16.1453 9.50527C16.3961 9.51921 16.6085 9.54533 16.7827 9.58364C16.9568 9.62196 17.1171 9.66898 17.2634 9.72471C17.4166 9.78044 17.5594 9.8501 17.6918 9.9337C17.8241 10.0173 17.953 10.1253 18.0784 10.2576C18.2108 10.383 18.3187 10.5119 18.4023 10.6442C18.4859 10.7766 18.5556 10.9194 18.6113 11.0727C18.667 11.219 18.7141 11.3792 18.7524 11.5533C18.7907 11.7275 18.8168 11.9365 18.8308 12.1803ZM17.9948 15.9421C18.0087 15.6982 18.0174 15.4805 18.0209 15.289C18.0244 15.0974 18.0262 14.6951 18.0262 14.0821C18.0262 13.469 18.0244 13.0668 18.0209 12.8752C18.0174 12.6836 18.0087 12.4659 17.9948 12.2221C17.9878 11.9992 17.9687 11.8215 17.9373 11.6892C17.906 11.5568 17.8729 11.4488 17.8381 11.3653C17.7963 11.2608 17.7493 11.1667 17.697 11.0831C17.6448 10.9995 17.5768 10.9194 17.4932 10.8428C17.4166 10.7592 17.3365 10.6913 17.2529 10.639C17.1693 10.5868 17.0753 10.5398 16.9708 10.498C16.8872 10.4631 16.7792 10.43 16.6468 10.3987C16.5145 10.3673 16.3369 10.3482 16.1139 10.3412C15.8701 10.3273 15.6524 10.3186 15.4608 10.3151C15.2693 10.3116 14.867 10.3099 14.254 10.3099C13.6409 10.3099 13.2386 10.3116 13.0471 10.3151C12.8555 10.3186 12.6378 10.3273 12.394 10.3412C12.1711 10.3482 11.9934 10.3673 11.8611 10.3987C11.7287 10.43 11.6207 10.4631 11.5371 10.498C11.4326 10.5398 11.3386 10.5868 11.255 10.639C11.1714 10.6913 11.0913 10.7592 11.0147 10.8428C10.9311 10.9194 10.8631 10.9995 10.8109 11.0831C10.7587 11.1667 10.7116 11.2608 10.6698 11.3653C10.635 11.4488 10.6019 11.5568 10.5706 11.6892C10.5392 11.8215 10.5201 11.9992 10.5131 12.2221C10.4992 12.4659 10.4905 12.6836 10.487 12.8752C10.4835 13.0668 10.4817 13.469 10.4817 14.0821C10.4817 14.6951 10.4835 15.0974 10.487 15.289C10.4905 15.4805 10.4992 15.6982 10.5131 15.9421C10.5201 16.165 10.5392 16.3426 10.5706 16.475C10.6019 16.6073 10.635 16.7153 10.6698 16.7989C10.7116 16.9034 10.7587 16.9974 10.8109 17.081C10.8631 17.1646 10.9311 17.2447 11.0147 17.3214C11.0913 17.405 11.1714 17.4729 11.255 17.5251C11.3386 17.5774 11.4326 17.6244 11.5371 17.6662C11.6207 17.701 11.7287 17.7341 11.8611 17.7655C11.9934 17.7968 12.1711 17.816 12.394 17.8229C12.6378 17.8369 12.8555 17.8456 13.0471 17.8491C13.2386 17.8525 13.6409 17.8543 14.254 17.8543C14.867 17.8543 15.2693 17.8525 15.4608 17.8491C15.6524 17.8456 15.8701 17.8369 16.1139 17.8229C16.3369 17.816 16.5145 17.7968 16.6468 17.7655C16.7792 17.7341 16.8872 17.701 16.9708 17.6662C17.0753 17.6244 17.1693 17.5774 17.2529 17.5251C17.3365 17.4729 17.4166 17.405 17.4932 17.3214C17.5768 17.2447 17.6448 17.1646 17.697 17.081C17.7493 16.9974 17.7963 16.9034 17.8381 16.7989C17.8729 16.7153 17.906 16.6073 17.9373 16.475C17.9687 16.3426 17.9878 16.165 17.9948 15.9421ZM14.254 11.7205C14.5814 11.7205 14.8879 11.7832 15.1735 11.9086C15.4591 12.027 15.7099 12.1942 15.9258 12.4102C16.1418 12.6261 16.309 12.8769 16.4274 13.1625C16.5528 13.4482 16.6155 13.7547 16.6155 14.0821C16.6155 14.4095 16.5528 14.716 16.4274 15.0016C16.309 15.2872 16.1418 15.538 15.9258 15.754C15.7099 15.9699 15.4591 16.1371 15.1735 16.2555C14.8879 16.3809 14.5814 16.4436 14.254 16.4436C13.9265 16.4436 13.62 16.3809 13.3344 16.2555C13.0488 16.1371 12.798 15.9699 12.5821 15.754C12.3661 15.538 12.1989 15.2872 12.0805 15.0016C11.9551 14.716 11.8924 14.4095 11.8924 14.0821C11.8924 13.7547 11.9551 13.4482 12.0805 13.1625C12.1989 12.8769 12.3661 12.6261 12.5821 12.4102C12.798 12.1942 13.0488 12.027 13.3344 11.9086C13.62 11.7832 13.9265 11.7205 14.254 11.7205ZM14.254 15.6181C14.6789 15.6181 15.0411 15.4684 15.3407 15.1688C15.6402 14.8693 15.79 14.507 15.79 14.0821C15.79 13.6571 15.6402 13.2949 15.3407 12.9953C15.0411 12.6958 14.6789 12.546 14.254 12.546C13.829 12.546 13.4668 12.6958 13.1672 12.9953C12.8677 13.2949 12.7179 13.6571 12.7179 14.0821C12.7179 14.507 12.8677 14.8693 13.1672 15.1688C13.4668 15.4684 13.829 15.6181 14.254 15.6181ZM17.2425 11.5011C17.2773 11.6474 17.2546 11.785 17.1745 11.9138C17.0944 12.0427 16.9812 12.1246 16.8349 12.1594C16.6886 12.1942 16.5511 12.1716 16.4222 12.0915C16.2933 12.0114 16.2115 11.8982 16.1766 11.7519C16.1418 11.6056 16.1644 11.468 16.2445 11.3391C16.3247 11.2103 16.4379 11.1284 16.5841 11.0936C16.7304 11.0518 16.868 11.0727 16.9969 11.1563C17.1258 11.2399 17.2076 11.3548 17.2425 11.5011Z" fill="#0C111A"/>
</svg>
