<svg width="37" height="37" viewBox="0 0 37 37" fill="none" xmlns="http://www.w3.org/2000/svg">
<path opacity="0.1" fill-rule="evenodd" clip-rule="evenodd" d="M18.5 36C28.165 36 36 28.165 36 18.5C36 8.83502 28.165 1 18.5 1C8.83502 1 1 8.83502 1 18.5C1 28.165 8.83502 36 18.5 36Z" stroke="white" stroke-width="1.5"/>
<path d="M24.2113 12.9731C24.1494 12.891 24.0833 12.8122 24.0132 12.7369C24.0837 12.5491 24.1372 12.3553 24.1732 12.158C24.2793 11.4359 24.1871 10.6986 23.9066 10.0249C23.9066 10.0249 23.0533 9.75826 21.0955 11.0762C20.2643 10.8467 19.4057 10.7314 18.5434 10.7334C17.6787 10.7319 16.8176 10.8472 15.9838 11.0762C14.0259 9.74303 13.1727 10.0249 13.1727 10.0249C12.8954 10.6915 12.8033 11.4205 12.906 12.1351C12.9422 12.3407 12.9983 12.5423 13.0736 12.7369C13.0051 12.8131 12.9365 12.8969 12.8756 12.9731C12.3071 13.6862 12.0053 14.5753 12.0224 15.4871C12.0205 15.7033 12.0307 15.9195 12.0528 16.1346C12.2966 19.5094 14.5439 20.2941 16.6846 20.5378C16.3816 20.8196 16.1762 21.1905 16.098 21.5968C16.0272 21.8677 15.9939 22.1471 15.999 22.4271V23.4251C15.1465 23.5013 14.272 23.3771 14.0008 22.6168C13.7096 21.8891 13.2268 21.2539 12.6036 20.7786C12.5581 20.7539 12.5147 20.7254 12.4741 20.6932C12.4194 20.5494 12.3224 20.4255 12.196 20.3378C12.0695 20.2501 11.9195 20.2027 11.7656 20.2019H11.7618C11.5604 20.2019 11.3672 20.2816 11.2245 20.4237C11.0817 20.5657 11.001 20.7585 11 20.9599C10.9977 21.5785 11.6171 21.9784 11.8708 22.114C12.1671 22.4127 12.4056 22.7637 12.5739 23.1493C12.8512 23.9286 13.6625 25.1133 15.9761 24.9594L15.9777 25.034L15.9807 25.2382C15.9807 25.4402 16.061 25.634 16.2038 25.7769C16.3467 25.9197 16.5405 26 16.7425 26H20.3337C20.5357 26 20.7295 25.9197 20.8724 25.7769C21.0152 25.634 21.0955 25.4402 21.0955 25.2382C21.0955 25.2382 21.1016 22.8309 21.1016 22.4271C21.1066 22.1471 21.0733 21.8677 21.0025 21.5968L21.001 21.5922L21.0041 21.5968C20.9972 21.5701 20.9873 21.5488 20.9797 21.5229C20.8948 21.1454 20.6984 20.8022 20.4159 20.5378L20.4251 20.5538L20.4099 20.5386C22.5505 20.2948 24.7826 19.4949 25.0264 16.1354C25.0485 15.9202 25.0587 15.7041 25.0569 15.4878C25.0704 14.5778 24.772 13.6899 24.2113 12.9731Z" fill="white"/>
</svg>
