<svg width="37" height="37" viewBox="0 0 37 37" fill="none" xmlns="http://www.w3.org/2000/svg">
<path opacity="0.1" fill-rule="evenodd" clip-rule="evenodd" d="M18.5 36C28.165 36 36 28.165 36 18.5C36 8.83502 28.165 1 18.5 1C8.83502 1 1 8.83502 1 18.5C1 28.165 8.83502 36 18.5 36Z" stroke="white" stroke-width="1.5"/>
<path d="M14.4835 14.9671C15.3029 14.9671 15.9671 14.3029 15.9671 13.4835C15.9671 12.6642 15.3029 12 14.4835 12C13.6642 12 13 12.6642 13 13.4835C13 14.3029 13.6642 14.9671 14.4835 14.9671Z" fill="white"/>
<path d="M15.7198 15.957H13.2473C13.1108 15.957 13 16.0678 13 16.2043V23.622C13 23.7585 13.1108 23.8693 13.2473 23.8693H15.7198C15.8563 23.8693 15.9671 23.7585 15.9671 23.622V16.2043C15.9671 16.0678 15.8563 15.957 15.7198 15.957Z" fill="white"/>
<path d="M23.088 15.5484C22.0313 15.1864 20.7094 15.5043 19.9167 16.0745C19.8895 15.9682 19.7926 15.8891 19.6774 15.8891H17.2048C17.0683 15.8891 16.9575 15.9998 16.9575 16.1363V23.5541C16.9575 23.6906 17.0683 23.8013 17.2048 23.8013H19.6774C19.8138 23.8013 19.9246 23.6906 19.9246 23.5541V18.2232C20.3242 17.879 20.839 17.7692 21.2603 17.9482C21.6688 18.1208 21.9027 18.5422 21.9027 19.1034V23.5541C21.9027 23.6906 22.0135 23.8013 22.1499 23.8013H24.6225C24.759 23.8013 24.8698 23.6906 24.8698 23.5541V18.6055C24.8416 16.5735 23.8857 15.8213 23.088 15.5484Z" fill="white"/>
</svg>
