<svg width="10" height="12" viewBox="0 0 10 12" fill="none" xmlns="http://www.w3.org/2000/svg">
<path d="M4.78561 5.99925C5.11462 5.99925 5.39627 5.88383 5.63057 5.65299C5.86486 5.42215 5.98201 5.14465 5.98201 4.82049C5.98201 4.49634 5.86486 4.21884 5.63057 3.988C5.39627 3.75716 5.11462 3.64174 4.78561 3.64174C4.4566 3.64174 4.17494 3.75716 3.94065 3.988C3.70635 4.21884 3.58921 4.49634 3.58921 4.82049C3.58921 5.14465 3.70635 5.42215 3.94065 5.65299C4.17494 5.88383 4.4566 5.99925 4.78561 5.99925ZM4.78561 10.3312C6.00195 9.23101 6.90424 8.23152 7.49247 7.33272C8.0807 6.43392 8.37481 5.6358 8.37481 4.93837C8.37481 3.86767 8.02836 2.99097 7.33544 2.30827C6.64252 1.62557 5.79258 1.28422 4.78561 1.28422C3.77864 1.28422 2.92869 1.62557 2.23578 2.30827C1.54286 2.99097 1.1964 3.86767 1.1964 4.93837C1.1964 5.6358 1.49052 6.43392 2.07875 7.33272C2.66698 8.23152 3.56927 9.23101 4.78561 10.3312ZM4.78561 11.893C3.18044 10.5473 1.98154 9.29731 1.18892 8.14311C0.396308 6.98891 0 5.92067 0 4.93837C0 3.46492 0.481053 2.29108 1.44316 1.41683C2.40527 0.542591 3.51942 0.105469 4.78561 0.105469C6.0518 0.105469 7.16595 0.542591 8.12806 1.41683C9.09016 2.29108 9.57122 3.46492 9.57122 4.93837C9.57122 5.92067 9.17491 6.98891 8.38229 8.14311C7.58968 9.29731 6.39078 10.5473 4.78561 11.893Z" fill="#475569"/>
</svg>
