<svg width="96" height="24" viewBox="0 0 96 24" fill="none" xmlns="http://www.w3.org/2000/svg">
<path fill-rule="evenodd" clip-rule="evenodd" d="M39.4481 13.5164V8.1051H42.8038V6.13737H33.2344V8.1051H36.6062V13.5164H39.4481ZM43.7725 6.13281V13.5027H46.6145V6.13281H43.7725ZM52.5873 8.1051L47.7705 11.5441V13.5164H57.2008V11.5441H52.2341L57.2008 8.1051V6.13737H47.7919V8.1051H52.5873ZM58.5227 13.5164H67.0485V11.9221H61.3593V10.5557H67.0485V9.10719H61.3593V7.74071H67.0485V6.13737H58.5227V13.5164ZM68.5525 6.13281V13.5027H77.0569V11.5395H71.3944V6.13281H68.5525ZM82.8959 7.95479L83.8914 9.77677H81.8737L82.8799 7.95479H82.8959ZM77.2977 13.5164H80.5089L81.0869 12.4551H84.7317L85.3043 13.5164H88.5156L84.6086 6.13737H81.2314L77.2977 13.5164Z" fill="#1142A0"/>
<path d="M35.4811 18.3162H36.8939V18.6016H35.1711V16.1354H36.8586V16.4208H35.4811V17.217H36.7882V17.4988H35.4811V18.3162ZM38.9055 18.6016H38.5708L38.067 17.8829L37.5597 18.6016H37.225L37.8697 17.6856L37.2602 16.8189H37.5914L38.067 17.4988L38.5391 16.8189H38.8703L38.2608 17.6856L38.9055 18.6016ZM41.0955 17.7102C41.0955 18.2598 40.7361 18.6509 40.2499 18.6509C39.9505 18.6509 39.6968 18.5029 39.5876 18.2739V19.3062H39.2917V16.8189H39.5876V17.1465C39.6968 16.9175 39.9505 16.7696 40.2499 16.7696C40.7361 16.7696 41.0955 17.1606 41.0955 17.7102ZM40.7854 17.7102C40.7854 17.5165 40.7291 17.3544 40.6163 17.2311C40.5071 17.1078 40.3591 17.0444 40.1795 17.0444C39.9998 17.0444 39.8518 17.1078 39.7391 17.2311C39.6299 17.3544 39.5735 17.5165 39.5735 17.7102C39.5735 17.904 39.6299 18.0661 39.7391 18.1894C39.8518 18.3127 39.9998 18.3761 40.1795 18.3761C40.3591 18.3761 40.5071 18.3127 40.6163 18.1894C40.7291 18.0661 40.7854 17.904 40.7854 17.7102ZM41.6037 18.6016V16.0227H41.8996V18.6016H41.6037ZM42.4058 17.7102C42.3987 17.2064 42.7827 16.759 43.3218 16.7696C43.8608 16.759 44.2448 17.2064 44.2378 17.7102C44.2448 18.214 43.8608 18.6615 43.3218 18.6509C42.7827 18.6615 42.3987 18.214 42.4058 17.7102ZM43.9277 17.7102C43.9277 17.5165 43.8714 17.3544 43.7586 17.2311C43.6494 17.1078 43.5014 17.0444 43.3218 17.0444C43.1421 17.0444 42.9941 17.1078 42.8814 17.2311C42.7722 17.3544 42.7158 17.5165 42.7158 17.7102C42.7158 17.904 42.7722 18.0661 42.8814 18.1894C42.9941 18.3127 43.1421 18.3761 43.3218 18.3761C43.5014 18.3761 43.6494 18.3127 43.7586 18.1894C43.8714 18.0661 43.9277 17.904 43.9277 17.7102ZM45.7454 16.8154V17.0761C45.6926 17.069 45.6432 17.0655 45.5904 17.0655C45.2416 17.0655 45.0408 17.2698 45.0408 17.6891V18.6016H44.7448V16.8189H45.0408V17.1536C45.1218 16.9246 45.3191 16.7907 45.5833 16.7907C45.6432 16.7907 45.6996 16.7977 45.7454 16.8154ZM47.6828 17.8018H46.2559C46.2876 18.1577 46.5272 18.3761 46.876 18.3761C47.105 18.3761 47.2952 18.2845 47.4432 18.0978L47.644 18.2669C47.4714 18.51 47.1966 18.6509 46.8689 18.6509C46.3299 18.6509 45.9529 18.2669 45.9529 17.7137C45.9529 17.1677 46.3193 16.7696 46.8443 16.7696C47.341 16.7696 47.6933 17.1254 47.6933 17.6433C47.6933 17.6961 47.6898 17.749 47.6828 17.8018ZM46.263 17.5623H47.3903C47.3622 17.2346 47.1543 17.0444 46.8443 17.0444C46.5307 17.0444 46.3158 17.2417 46.263 17.5623ZM48.0147 18.4148C48.0147 18.2915 48.0992 18.207 48.2261 18.207C48.3529 18.207 48.4375 18.2915 48.4375 18.4148C48.4375 18.5417 48.3529 18.6297 48.2261 18.6297C48.0992 18.6297 48.0147 18.5417 48.0147 18.4148ZM49.7039 17.3685C49.6933 16.6568 50.2394 16.0755 50.9475 16.0861C51.4126 16.0861 51.8142 16.308 52.0221 16.7202L51.7649 16.8682C51.5923 16.5406 51.328 16.375 50.9687 16.375C50.4085 16.375 50.028 16.7907 50.028 17.3685C50.028 17.9463 50.4085 18.362 50.9687 18.362C51.321 18.362 51.5993 18.2035 51.7719 17.8688L52.0221 18.0167C51.8142 18.4289 51.4126 18.6509 50.9475 18.6509C50.2324 18.6615 49.6933 18.0801 49.7039 17.3685ZM52.3316 17.7102C52.3246 17.2064 52.7086 16.759 53.2476 16.7696C53.7866 16.759 54.1707 17.2064 54.1636 17.7102C54.1707 18.214 53.7866 18.6615 53.2476 18.6509C52.7086 18.6615 52.3246 18.214 52.3316 17.7102ZM53.8536 17.7102C53.8536 17.5165 53.7972 17.3544 53.6845 17.2311C53.5753 17.1078 53.4273 17.0444 53.2476 17.0444C53.0679 17.0444 52.92 17.1078 52.8072 17.2311C52.698 17.3544 52.6416 17.5165 52.6416 17.7102C52.6416 17.904 52.698 18.0661 52.8072 18.1894C52.92 18.3127 53.0679 18.3761 53.2476 18.3761C53.4273 18.3761 53.5753 18.3127 53.6845 18.1894C53.7972 18.0661 53.8536 17.904 53.8536 17.7102ZM56.2208 17.4601V18.6016H55.9249V17.5305C55.9249 17.1923 55.7981 17.0444 55.5162 17.0444C55.1956 17.0444 54.9666 17.2417 54.9666 17.5411V18.6016H54.6707V16.8189H54.9666V17.1219C55.0653 16.8964 55.2943 16.7696 55.5867 16.7696C55.9918 16.7696 56.2208 17.0197 56.2208 17.4601ZM58.3918 17.4601V18.6016H58.0959V17.5305C58.0959 17.1923 57.969 17.0444 57.6872 17.0444C57.3666 17.0444 57.1376 17.2417 57.1376 17.5411V18.6016H56.8416V16.8189H57.1376V17.1219C57.2362 16.8964 57.4652 16.7696 57.7576 16.7696C58.1628 16.7696 58.3918 17.0197 58.3918 17.4601ZM60.6156 17.8018H59.1888C59.2205 18.1577 59.46 18.3761 59.8088 18.3761C60.0378 18.3761 60.2281 18.2845 60.376 18.0978L60.5768 18.2669C60.4042 18.51 60.1294 18.6509 59.8018 18.6509C59.2627 18.6509 58.8858 18.2669 58.8858 17.7137C58.8858 17.1677 59.2522 16.7696 59.7771 16.7696C60.2739 16.7696 60.6262 17.1254 60.6262 17.6433C60.6262 17.6961 60.6226 17.749 60.6156 17.8018ZM59.1958 17.5623H60.3232C60.295 17.2346 60.0871 17.0444 59.7771 17.0444C59.4636 17.0444 59.2486 17.2417 59.1958 17.5623ZM60.9982 17.7102C60.9982 17.1677 61.3717 16.7696 61.9142 16.7696C62.2419 16.7696 62.5096 16.907 62.6611 17.1571L62.4286 17.3192C62.3194 17.1395 62.1397 17.0444 61.9178 17.0444C61.7381 17.0444 61.5901 17.1043 61.4774 17.2276C61.3646 17.3509 61.3083 17.5094 61.3083 17.7102C61.3083 17.911 61.3646 18.0696 61.4774 18.1929C61.5901 18.3162 61.7381 18.3761 61.9178 18.3761C62.1397 18.3761 62.3194 18.281 62.4286 18.1013L62.6611 18.2633C62.5096 18.5135 62.2419 18.6509 61.9142 18.6509C61.3717 18.6509 60.9982 18.2528 60.9982 17.7102ZM63.2612 18.1436V17.0725H62.9054V16.8189H63.2612V16.2904H63.5572V16.8189H64.1173V17.0725H63.5572V18.1224C63.5572 18.2951 63.6452 18.369 63.8461 18.369C63.9271 18.369 64.0222 18.3585 64.1244 18.3373V18.5839C64.0222 18.6157 63.9165 18.6297 63.8038 18.6297C63.4515 18.6297 63.2612 18.4642 63.2612 18.1436ZM64.5566 18.4148C64.5566 18.2915 64.6412 18.207 64.768 18.207C64.8948 18.207 64.9794 18.2915 64.9794 18.4148C64.9794 18.5417 64.8948 18.6297 64.768 18.6297C64.6412 18.6297 64.5566 18.5417 64.5566 18.4148ZM66.3515 17.7173V16.1354H66.6615V17.6891C66.6615 18.1365 66.8941 18.362 67.3556 18.362C67.8171 18.362 68.0496 18.1365 68.0496 17.6891V16.1354H68.3597V17.7173C68.3597 18.3056 67.9792 18.6509 67.3556 18.6509C66.732 18.6509 66.3515 18.3056 66.3515 17.7173ZM70.5574 17.4601V18.6016H70.2615V17.5305C70.2615 17.1923 70.1346 17.0444 69.8528 17.0444C69.5322 17.0444 69.3032 17.2417 69.3032 17.5411V18.6016H69.0073V16.8189H69.3032V17.1219C69.4018 16.8964 69.6308 16.7696 69.9233 16.7696C70.3284 16.7696 70.5574 17.0197 70.5574 17.4601ZM73.3947 16.8189H73.6942L73.1093 18.6016H72.7852L72.3061 17.1571L71.8269 18.6016H71.5028L70.918 16.8189H71.2175L71.6719 18.2387L72.144 16.8189H72.4681L72.9402 18.2387L73.3947 16.8189ZM74.036 16.2411C74.036 16.1248 74.1241 16.0368 74.2404 16.0368C74.3566 16.0368 74.4447 16.1248 74.4447 16.2411C74.4447 16.3574 74.3566 16.4454 74.2404 16.4454C74.1241 16.4454 74.036 16.3574 74.036 16.2411ZM74.0924 18.6016V16.8189H74.3883V18.6016H74.0924ZM76.5748 17.4601V18.6016H76.2789V17.5305C76.2789 17.1923 76.1521 17.0444 75.8702 17.0444C75.5496 17.0444 75.3206 17.2417 75.3206 17.5411V18.6016H75.0247V16.8189H75.3206V17.1219C75.4193 16.8964 75.6483 16.7696 75.9407 16.7696C76.3458 16.7696 76.5748 17.0197 76.5748 17.4601ZM78.5767 16.0227H78.8726V18.6016H78.5767V18.2739C78.4675 18.5029 78.2138 18.6509 77.9144 18.6509C77.4282 18.6509 77.0688 18.2598 77.0688 17.7102C77.0688 17.1606 77.4282 16.7696 77.9144 16.7696C78.2138 16.7696 78.4675 16.9175 78.5767 17.1465V16.0227ZM78.5908 17.7102C78.5908 17.5165 78.5344 17.3544 78.4217 17.2311C78.3125 17.1078 78.1645 17.0444 77.9848 17.0444C77.8051 17.0444 77.6572 17.1078 77.5444 17.2311C77.4352 17.3544 77.3788 17.5165 77.3788 17.7102C77.3788 17.904 77.4352 18.0661 77.5444 18.1894C77.6572 18.3127 77.8051 18.3761 77.9848 18.3761C78.1645 18.3761 78.3125 18.3127 78.4217 18.1894C78.5344 18.0661 78.5908 17.904 78.5908 17.7102Z" fill="#1142A0"/>
<path fill-rule="evenodd" clip-rule="evenodd" d="M0.523438 24H33.2351L29.1033 17.9465H13.288L14.6849 15.8375H27.578L23.58 9.78402H18.8167L21.1662 6.2175L16.9756 0L0.523438 24Z" fill="#1142A0"/>
</svg>
