<svg width="146" height="43" viewBox="0 0 146 43" fill="none" xmlns="http://www.w3.org/2000/svg">
<path fill-rule="evenodd" clip-rule="evenodd" d="M60.0923 23.9308V14.351H65.2727V10.8674H50.5V14.351H55.7051V23.9308H60.0923ZM66.7682 10.8594V23.9066H71.1554V10.8594H66.7682ZM80.3759 14.351L72.94 20.4392V23.9308H87.4979V20.4392H79.8306L87.4979 14.351V10.8674H72.973V14.351H80.3759ZM89.5386 23.9308H102.7V21.1085H93.9175V18.6893H102.7V16.125H93.9175V13.7059H102.7V10.8674H89.5386V23.9308ZM105.022 10.8594V23.9066H118.15V20.4311H109.409V10.8594H105.022ZM127.164 14.0849L128.701 17.3104H125.586L127.14 14.0849H127.164ZM118.522 23.9308H123.479L124.372 22.0519H129.998L130.882 23.9308H135.84L129.808 10.8674H124.595L118.522 23.9308Z" fill="white"/>
<path d="M54.2897 33.0385H57.1546V33.6172H53.661V28.6161H57.0832V29.1948H54.2897V30.8094H56.9403V31.381H54.2897V33.0385ZM61.234 33.6172H60.5553L59.5336 32.1597L58.5048 33.6172H57.8261L59.1335 31.7596L57.8976 30.0021H58.5691L59.5336 31.381L60.491 30.0021H61.1626L59.9266 31.7596L61.234 33.6172ZM65.675 31.8097C65.675 32.9242 64.9462 33.7172 63.9603 33.7172C63.353 33.7172 62.8386 33.4171 62.6172 32.9528V35.0461H62.017V30.0021H62.6172V30.6665C62.8386 30.2022 63.353 29.9021 63.9603 29.9021C64.9462 29.9021 65.675 30.6951 65.675 31.8097ZM65.0463 31.8097C65.0463 31.4167 64.932 31.0881 64.7033 30.838C64.4819 30.588 64.1818 30.4594 63.8174 30.4594C63.4531 30.4594 63.153 30.588 62.9244 30.838C62.7029 31.0881 62.5886 31.4167 62.5886 31.8097C62.5886 32.2026 62.7029 32.5312 62.9244 32.7813C63.153 33.0313 63.4531 33.1599 63.8174 33.1599C64.1818 33.1599 64.4819 33.0313 64.7033 32.7813C64.932 32.5312 65.0463 32.2026 65.0463 31.8097ZM66.7056 33.6172V28.3875H67.3057V33.6172H66.7056ZM68.3321 31.8097C68.3178 30.788 69.0966 29.8807 70.1897 29.9021C71.2828 29.8807 72.0615 30.788 72.0472 31.8097C72.0615 32.8313 71.2828 33.7386 70.1897 33.7172C69.0966 33.7386 68.3178 32.8313 68.3321 31.8097ZM71.4185 31.8097C71.4185 31.4167 71.3042 31.0881 71.0756 30.838C70.8541 30.588 70.554 30.4594 70.1897 30.4594C69.8253 30.4594 69.5252 30.588 69.2966 30.838C69.0752 31.0881 68.9608 31.4167 68.9608 31.8097C68.9608 32.2026 69.0752 32.5312 69.2966 32.7813C69.5252 33.0313 69.8253 33.1599 70.1897 33.1599C70.554 33.1599 70.8541 33.0313 71.0756 32.7813C71.3042 32.5312 71.4185 32.2026 71.4185 31.8097ZM75.1045 29.995V30.5237C74.9974 30.5094 74.8973 30.5022 74.7902 30.5022C74.0829 30.5022 73.6756 30.9166 73.6756 31.7668V33.6172H73.0755V30.0021H73.6756V30.6808C73.84 30.2165 74.2401 29.945 74.7759 29.945C74.8973 29.945 75.0117 29.9593 75.1045 29.995ZM79.0333 31.9954H76.1398C76.2041 32.717 76.6899 33.1599 77.3972 33.1599C77.8616 33.1599 78.2474 32.9742 78.5475 32.5955L78.9547 32.9385C78.6046 33.4314 78.0474 33.7172 77.3829 33.7172C76.2898 33.7172 75.5254 32.9385 75.5254 31.8168C75.5254 30.7094 76.2684 29.9021 77.3329 29.9021C78.3403 29.9021 79.0547 30.6237 79.0547 31.6739C79.0547 31.7811 79.0476 31.8882 79.0333 31.9954ZM76.1541 31.5096H78.4403C78.3831 30.8452 77.9616 30.4594 77.3329 30.4594C76.6971 30.4594 76.2613 30.8594 76.1541 31.5096ZM79.7064 33.2385C79.7064 32.9885 79.8779 32.817 80.1351 32.817C80.3923 32.817 80.5637 32.9885 80.5637 33.2385C80.5637 33.4957 80.3923 33.6743 80.1351 33.6743C79.8779 33.6743 79.7064 33.4957 79.7064 33.2385ZM83.1319 31.1166C83.1105 29.6735 84.2179 28.4946 85.6539 28.5161C86.597 28.5161 87.4114 28.9662 87.833 29.8021L87.3114 30.1021C86.9613 29.4377 86.4255 29.1019 85.6968 29.1019C84.5608 29.1019 83.7892 29.945 83.7892 31.1166C83.7892 32.2883 84.5608 33.1314 85.6968 33.1314C86.4112 33.1314 86.9756 32.8099 87.3257 32.1312L87.833 32.4312C87.4114 33.2671 86.597 33.7172 85.6539 33.7172C84.2036 33.7386 83.1105 32.5598 83.1319 31.1166ZM88.4607 31.8097C88.4464 30.788 89.2251 29.8807 90.3182 29.9021C91.4113 29.8807 92.19 30.788 92.1757 31.8097C92.19 32.8313 91.4113 33.7386 90.3182 33.7172C89.2251 33.7386 88.4464 32.8313 88.4607 31.8097ZM91.547 31.8097C91.547 31.4167 91.4327 31.0881 91.2041 30.838C90.9826 30.588 90.6826 30.4594 90.3182 30.4594C89.9538 30.4594 89.6538 30.588 89.4252 30.838C89.2037 31.0881 89.0894 31.4167 89.0894 31.8097C89.0894 32.2026 89.2037 32.5312 89.4252 32.7813C89.6538 33.0313 89.9538 33.1599 90.3182 33.1599C90.6826 33.1599 90.9826 33.0313 91.2041 32.7813C91.4327 32.5312 91.547 32.2026 91.547 31.8097ZM96.3476 31.3024V33.6172H95.7474V31.4453C95.7474 30.7594 95.4902 30.4594 94.9187 30.4594C94.2686 30.4594 93.8042 30.8594 93.8042 31.4667V33.6172H93.204V30.0021H93.8042V30.6165C94.0042 30.1593 94.4686 29.9021 95.0616 29.9021C95.8832 29.9021 96.3476 30.4093 96.3476 31.3024ZM100.75 31.3024V33.6172H100.15V31.4453C100.15 30.7594 99.8927 30.4594 99.3212 30.4594C98.671 30.4594 98.2066 30.8594 98.2066 31.4667V33.6172H97.6065V30.0021H98.2066V30.6165C98.4067 30.1593 98.8711 29.9021 99.464 29.9021C100.286 29.9021 100.75 30.4093 100.75 31.3024ZM105.26 31.9954H102.366C102.43 32.717 102.916 33.1599 103.624 33.1599C104.088 33.1599 104.474 32.9742 104.774 32.5955L105.181 32.9385C104.831 33.4314 104.274 33.7172 103.609 33.7172C102.516 33.7172 101.752 32.9385 101.752 31.8168C101.752 30.7094 102.495 29.9021 103.559 29.9021C104.567 29.9021 105.281 30.6237 105.281 31.6739C105.281 31.7811 105.274 31.8882 105.26 31.9954ZM102.38 31.5096H104.667C104.61 30.8452 104.188 30.4594 103.559 30.4594C102.923 30.4594 102.488 30.8594 102.38 31.5096ZM106.036 31.8097C106.036 30.7094 106.793 29.9021 107.893 29.9021C108.558 29.9021 109.101 30.1807 109.408 30.688L108.936 31.0166C108.715 30.6523 108.35 30.4594 107.9 30.4594C107.536 30.4594 107.236 30.5808 107.007 30.8309C106.779 31.0809 106.664 31.4024 106.664 31.8097C106.664 32.2169 106.779 32.5384 107.007 32.7884C107.236 33.0385 107.536 33.1599 107.9 33.1599C108.35 33.1599 108.715 32.967 108.936 32.6027L109.408 32.9313C109.101 33.4386 108.558 33.7172 107.893 33.7172C106.793 33.7172 106.036 32.9099 106.036 31.8097ZM110.625 32.6884V30.5165H109.903V30.0021H110.625V28.9305H111.225V30.0021H112.361V30.5165H111.225V32.6455C111.225 32.9956 111.403 33.1457 111.811 33.1457C111.975 33.1457 112.168 33.1242 112.375 33.0814V33.5815C112.168 33.6458 111.954 33.6743 111.725 33.6743C111.011 33.6743 110.625 33.3386 110.625 32.6884ZM113.252 33.2385C113.252 32.9885 113.423 32.817 113.68 32.817C113.937 32.817 114.109 32.9885 114.109 33.2385C114.109 33.4957 113.937 33.6743 113.68 33.6743C113.423 33.6743 113.252 33.4957 113.252 33.2385ZM116.891 31.8239V28.6161H117.52V31.7668C117.52 32.6741 117.992 33.1314 118.928 33.1314C119.864 33.1314 120.335 32.6741 120.335 31.7668V28.6161H120.964V31.8239C120.964 33.0171 120.192 33.7172 118.928 33.7172C117.663 33.7172 116.891 33.0171 116.891 31.8239ZM125.421 31.3024V33.6172H124.82V31.4453C124.82 30.7594 124.563 30.4594 123.992 30.4594C123.342 30.4594 122.877 30.8594 122.877 31.4667V33.6172H122.277V30.0021H122.877V30.6165C123.077 30.1593 123.542 29.9021 124.135 29.9021C124.956 29.9021 125.421 30.4093 125.421 31.3024ZM131.174 30.0021H131.782L130.596 33.6172H129.938L128.967 30.688L127.995 33.6172H127.338L126.152 30.0021H126.759L127.681 32.8813L128.638 30.0021H129.295L130.253 32.8813L131.174 30.0021ZM132.475 28.8304C132.475 28.5947 132.653 28.4161 132.889 28.4161C133.125 28.4161 133.304 28.5947 133.304 28.8304C133.304 29.0662 133.125 29.2448 132.889 29.2448C132.653 29.2448 132.475 29.0662 132.475 28.8304ZM132.589 33.6172V30.0021H133.189V33.6172H132.589ZM137.623 31.3024V33.6172H137.023V31.4453C137.023 30.7594 136.766 30.4594 136.194 30.4594C135.544 30.4594 135.08 30.8594 135.08 31.4667V33.6172H134.48V30.0021H135.08V30.6165C135.28 30.1593 135.744 29.9021 136.337 29.9021C137.159 29.9021 137.623 30.4093 137.623 31.3024ZM141.683 28.3875H142.283V33.6172H141.683V32.9528C141.461 33.4171 140.947 33.7172 140.34 33.7172C139.354 33.7172 138.625 32.9242 138.625 31.8097C138.625 30.6951 139.354 29.9021 140.34 29.9021C140.947 29.9021 141.461 30.2022 141.683 30.6665V28.3875ZM141.711 31.8097C141.711 31.4167 141.597 31.0881 141.368 30.838C141.147 30.588 140.847 30.4594 140.483 30.4594C140.118 30.4594 139.818 30.588 139.589 30.838C139.368 31.0881 139.254 31.4167 139.254 31.8097C139.254 32.2026 139.368 32.5312 139.589 32.7813C139.818 33.0313 140.118 33.1599 140.483 33.1599C140.847 33.1599 141.147 33.0313 141.368 32.7813C141.597 32.5312 141.711 32.2026 141.711 31.8097Z" fill="white"/>
<path fill-rule="evenodd" clip-rule="evenodd" d="M0 42.4882H50.4982L44.1198 31.7714H19.7052L21.8616 28.0378H41.7651L35.5933 17.3211H28.24L31.8671 11.0071L25.3978 0L0 42.4882Z" fill="white"/>
</svg>
