<svg width="162" height="50" viewBox="0 0 162 50" fill="none" xmlns="http://www.w3.org/2000/svg">
<rect width="162" height="50" rx="25" fill="white"/>
<path d="M102.558 23.7863V26.0773H101.122V27.5798H102.558V32.6847C102.558 34.4279 103.346 35.1252 105.33 35.1252C105.679 35.1252 106.011 35.0837 106.302 35.0339V33.548C106.053 33.5729 105.895 33.5895 105.621 33.5895C104.733 33.5895 104.343 33.1745 104.343 32.2282V27.5798H106.302V26.0773H104.343V23.7863H102.558Z" fill="#053FB0"/>
<path d="M111.355 35.2497C113.995 35.2497 115.614 33.4816 115.614 30.5514C115.614 27.6379 113.987 25.8615 111.355 25.8615C108.716 25.8615 107.089 27.6379 107.089 30.5514C107.089 33.4816 108.707 35.2497 111.355 35.2497ZM111.355 33.6642C109.803 33.6642 108.932 32.527 108.932 30.5514C108.932 28.5925 109.803 27.447 111.355 27.447C112.899 27.447 113.779 28.5925 113.779 30.5514C113.779 32.5187 112.899 33.6642 111.355 33.6642Z" fill="#053FB0"/>
<path d="M116.999 35.0754H118.783V29.738C118.783 28.4679 119.738 27.613 121.091 27.613C121.406 27.613 121.938 27.6711 122.087 27.7209V25.9611C121.896 25.9113 121.556 25.8864 121.29 25.8864C120.111 25.8864 119.107 26.5339 118.85 27.4221H118.717V26.0358H116.999V35.0754Z" fill="#053FB0"/>
<path d="M126.518 27.3805C127.838 27.3805 128.701 28.3019 128.743 29.7214H124.177C124.277 28.3102 125.198 27.3805 126.518 27.3805ZM128.735 32.6349C128.403 33.3405 127.664 33.7306 126.585 33.7306C125.157 33.7306 124.236 32.7263 124.177 31.1408V31.0412H130.561V30.4186C130.561 27.5798 129.042 25.8615 126.527 25.8615C123.978 25.8615 122.36 27.696 122.36 30.5846C122.36 33.4733 123.945 35.2497 126.535 35.2497C128.602 35.2497 130.046 34.2536 130.453 32.6349H128.735Z" fill="#053FB0"/>
<path d="M90.8543 31.7372C90.992 33.9569 92.8417 35.3765 95.5949 35.3765C98.5373 35.3765 100.378 33.8881 100.378 31.5135C100.378 29.6466 99.3288 28.6141 96.7822 28.0205L95.4142 27.685C93.7967 27.3064 93.1429 26.7988 93.1429 25.9126C93.1429 24.7942 94.1581 24.0629 95.6809 24.0629C97.1263 24.0629 98.1243 24.777 98.305 25.9212H100.181C100.069 23.8306 98.2275 22.3594 95.7067 22.3594C92.9966 22.3594 91.1899 23.8306 91.1899 26.0417C91.1899 27.8656 92.2137 28.9497 94.4592 29.4745L96.0595 29.8616C97.7027 30.2488 98.4254 30.8166 98.4254 31.763C98.4254 32.8643 97.2898 33.6644 95.7411 33.6644C94.0806 33.6644 92.9278 32.9159 92.7643 31.7372H90.8543Z" fill="#053FB0"/>
<path d="M72.367 25.8864C71.1385 25.8864 70.076 26.5007 69.5281 27.53H69.3953V26.0358H67.6771V38.0803H69.4617V33.7057H69.6028C70.076 34.6603 71.097 35.2248 72.3836 35.2248C74.6663 35.2248 76.1189 33.4235 76.1189 30.5514C76.1189 27.6794 74.6663 25.8864 72.367 25.8864ZM71.8606 33.6227C70.3665 33.6227 69.4285 32.444 69.4285 30.5597C69.4285 28.6672 70.3665 27.4885 71.8689 27.4885C73.3797 27.4885 74.2845 28.6423 74.2845 30.5514C74.2845 32.4689 73.3797 33.6227 71.8606 33.6227Z" fill="#053FB0"/>
<path d="M82.3638 25.8864C81.1353 25.8864 80.0728 26.5007 79.5249 27.53H79.3921V26.0358H77.6738V38.0803H79.4585V33.7057H79.5996C80.0728 34.6603 81.0938 35.2248 82.3804 35.2248C84.6631 35.2248 86.1157 33.4235 86.1157 30.5514C86.1157 27.6794 84.6631 25.8864 82.3638 25.8864ZM81.8574 33.6227C80.3633 33.6227 79.4253 32.444 79.4253 30.5597C79.4253 28.6672 80.3633 27.4885 81.8657 27.4885C83.3765 27.4885 84.2813 28.6423 84.2813 30.5514C84.2813 32.4689 83.3765 33.6227 81.8574 33.6227Z" fill="#053FB0"/>
<path d="M64.475 35.0754H66.5227L62.0403 22.6605H59.9668L55.4844 35.0754H57.4632L58.6075 31.7802H63.3394L64.475 35.0754ZM60.9046 24.9146H61.0508L62.849 30.1628H59.0979L60.9046 24.9146Z" fill="#053FB0"/>
<path d="M56.6797 13.2947V19.2837H58.842C60.6267 19.2837 61.6602 18.1838 61.6602 16.2705C61.6602 14.3862 60.6184 13.2947 58.842 13.2947H56.6797ZM57.6094 14.1414H58.7383C59.9792 14.1414 60.7139 14.9299 60.7139 16.283C60.7139 17.6567 59.9917 18.437 58.7383 18.437H57.6094V14.1414Z" fill="#053FB0"/>
<path d="M64.8252 19.3708C66.1451 19.3708 66.9544 18.4868 66.9544 17.0217C66.9544 15.5649 66.1409 14.6768 64.8252 14.6768C63.5054 14.6768 62.6919 15.5649 62.6919 17.0217C62.6919 18.4868 63.5013 19.3708 64.8252 19.3708ZM64.8252 18.5781C64.0491 18.5781 63.6133 18.0095 63.6133 17.0217C63.6133 16.0422 64.0491 15.4695 64.8252 15.4695C65.5972 15.4695 66.0372 16.0422 66.0372 17.0217C66.0372 18.0054 65.5972 18.5781 64.8252 18.5781Z" fill="#053FB0"/>
<path d="M73.8465 14.7639H72.9542L72.149 18.2129H72.0785L71.1488 14.7639H70.2938L69.3641 18.2129H69.2977L68.4884 14.7639H67.5836L68.8287 19.2837H69.7459L70.6756 15.9551H70.7462L71.68 19.2837H72.6056L73.8465 14.7639Z" fill="#053FB0"/>
<path d="M74.8742 19.2837H75.7665V16.6399C75.7665 15.9343 76.1857 15.4944 76.8456 15.4944C77.5055 15.4944 77.8209 15.8555 77.8209 16.5818V19.2837H78.7133V16.3577C78.7133 15.2827 78.1571 14.6768 77.1486 14.6768C76.4679 14.6768 76.0197 14.9797 75.7997 15.4819H75.7333V14.7639H74.8742V19.2837Z" fill="#053FB0"/>
<path d="M80.1186 19.2837H81.0109V13H80.1186V19.2837Z" fill="#053FB0"/>
<path d="M84.3669 19.3708C85.6868 19.3708 86.4961 18.4868 86.4961 17.0217C86.4961 15.5649 85.6826 14.6768 84.3669 14.6768C83.0471 14.6768 82.2336 15.5649 82.2336 17.0217C82.2336 18.4868 83.043 19.3708 84.3669 19.3708ZM84.3669 18.5781C83.5908 18.5781 83.155 18.0095 83.155 17.0217C83.155 16.0422 83.5908 15.4695 84.3669 15.4695C85.1389 15.4695 85.5789 16.0422 85.5789 17.0217C85.5789 18.0054 85.1389 18.5781 84.3669 18.5781Z" fill="#053FB0"/>
<path d="M89.1548 18.6072C88.6692 18.6072 88.3165 18.3706 88.3165 17.9639C88.3165 17.5654 88.5987 17.3538 89.2212 17.3123L90.3252 17.2417V17.6194C90.3252 18.1797 89.8272 18.6072 89.1548 18.6072ZM88.9266 19.3584C89.5201 19.3584 90.014 19.1011 90.2837 18.6487H90.3543V19.2837H91.2134V16.1958C91.2134 15.2412 90.5743 14.6768 89.4412 14.6768C88.4161 14.6768 87.6856 15.1748 87.5943 15.9509H88.4576C88.5572 15.6313 88.9017 15.4487 89.3997 15.4487C90.0098 15.4487 90.3252 15.7185 90.3252 16.1958V16.5859L89.1009 16.6565C88.0259 16.7229 87.42 17.1919 87.42 18.0054C87.42 18.8313 88.055 19.3584 88.9266 19.3584Z" fill="#053FB0"/>
<path d="M94.2416 19.3584C94.8641 19.3584 95.3912 19.0637 95.661 18.5698H95.7315V19.2837H96.5865V13H95.6942V15.4819H95.6278C95.3829 14.9839 94.86 14.6892 94.2416 14.6892C93.1002 14.6892 92.3656 15.594 92.3656 17.0217C92.3656 18.4536 93.0919 19.3584 94.2416 19.3584ZM94.4947 15.4902C95.2418 15.4902 95.7108 16.0837 95.7108 17.0259C95.7108 17.9722 95.2459 18.5574 94.4947 18.5574C93.7394 18.5574 93.287 17.9805 93.287 17.0217C93.287 16.0713 93.7435 15.4902 94.4947 15.4902Z" fill="#053FB0"/>
<path d="M102.373 19.3708C103.693 19.3708 104.502 18.4868 104.502 17.0217C104.502 15.5649 103.689 14.6768 102.373 14.6768C101.053 14.6768 100.24 15.5649 100.24 17.0217C100.24 18.4868 101.049 19.3708 102.373 19.3708ZM102.373 18.5781C101.597 18.5781 101.161 18.0095 101.161 17.0217C101.161 16.0422 101.597 15.4695 102.373 15.4695C103.145 15.4695 103.585 16.0422 103.585 17.0217C103.585 18.0054 103.145 18.5781 102.373 18.5781Z" fill="#053FB0"/>
<path d="M105.683 19.2837H106.576V16.6399C106.576 15.9343 106.995 15.4944 107.655 15.4944C108.315 15.4944 108.63 15.8555 108.63 16.5818V19.2837H109.522V16.3577C109.522 15.2827 108.966 14.6768 107.958 14.6768C107.277 14.6768 106.829 14.9797 106.609 15.4819H106.542V14.7639H105.683V19.2837Z" fill="#053FB0"/>
<path d="M113.632 13.6392V14.7847H112.914V15.5359H113.632V18.0884C113.632 18.96 114.026 19.3086 115.018 19.3086C115.193 19.3086 115.359 19.2878 115.504 19.2629V18.52C115.379 18.5325 115.301 18.5408 115.164 18.5408C114.72 18.5408 114.525 18.3333 114.525 17.8601V15.5359H115.504V14.7847H114.525V13.6392H113.632Z" fill="#053FB0"/>
<path d="M116.702 19.2837H117.594V16.644C117.594 15.9592 118.001 15.4985 118.731 15.4985C119.362 15.4985 119.698 15.8638 119.698 16.5859V19.2837H120.591V16.366C120.591 15.291 119.997 14.6809 119.034 14.6809C118.354 14.6809 117.876 14.9839 117.656 15.4902H117.586V13H116.702V19.2837Z" fill="#053FB0"/>
<path d="M123.81 15.4363C124.47 15.4363 124.901 15.897 124.922 16.6067H122.639C122.689 15.9011 123.15 15.4363 123.81 15.4363ZM124.918 18.0635C124.752 18.4163 124.383 18.6113 123.843 18.6113C123.129 18.6113 122.668 18.1091 122.639 17.3164V17.2666H125.831V16.9553C125.831 15.5359 125.071 14.6768 123.814 14.6768C122.54 14.6768 121.73 15.594 121.73 17.0383C121.73 18.4827 122.523 19.3708 123.818 19.3708C124.852 19.3708 125.574 18.8728 125.777 18.0635H124.918Z" fill="#053FB0"/>
<path d="M45.7973 24.885C45.819 23.204 46.7217 21.6135 48.1539 20.733C47.2504 19.4427 45.7371 18.6246 44.1627 18.5753C42.4835 18.399 40.8555 19.5801 39.9998 19.5801C39.1275 19.5801 37.81 18.5928 36.3913 18.622C34.5421 18.6817 32.8181 19.7331 31.9184 21.3499C29.9844 24.6983 31.427 29.6193 33.2796 32.3259C34.2065 33.6513 35.2898 35.1317 36.7072 35.0792C38.0943 35.0217 38.6123 34.1948 40.2866 34.1948C41.9454 34.1948 42.4314 35.0792 43.8776 35.0459C45.366 35.0217 46.3038 33.7146 47.1981 32.3767C47.8641 31.4324 48.3766 30.3886 48.7166 29.2842C46.9674 28.5444 45.7994 26.7842 45.7973 24.885Z" fill="#053FB0"/>
<path d="M43.0656 16.7953C43.8772 15.8211 44.277 14.5689 44.1802 13.3047C42.9403 13.4349 41.7951 14.0275 40.9726 14.9643C40.1683 15.8796 39.7497 17.1098 39.8289 18.3257C41.0692 18.3385 42.2885 17.762 43.0656 16.7953Z" fill="#053FB0"/>
</svg>
