<svg width="17" height="17" viewBox="0 0 17 17" fill="none" xmlns="http://www.w3.org/2000/svg">
<path d="M12.1945 9.82788C12.0212 9.99576 11.9416 10.2386 11.9811 10.4767L12.5757 13.7675C12.6259 14.0464 12.5082 14.3287 12.2747 14.4899C12.046 14.6571 11.7417 14.6772 11.4922 14.5434L8.52976 12.9983C8.42675 12.9435 8.31238 12.914 8.19533 12.9107H8.01406C7.95119 12.92 7.88965 12.9401 7.83347 12.9709L4.87039 14.5233C4.72391 14.5969 4.55803 14.623 4.39549 14.5969C3.99953 14.522 3.73532 14.1447 3.8002 13.7468L4.39549 10.4559C4.43496 10.2158 4.35536 9.97168 4.18213 9.80112L1.76685 7.46009C1.56485 7.26411 1.49462 6.96981 1.58692 6.70427C1.67655 6.4394 1.9053 6.2461 2.18155 6.20262L5.50581 5.72037C5.75865 5.69428 5.98071 5.54044 6.09442 5.31303L7.55923 2.30982C7.59402 2.24293 7.63883 2.1814 7.69301 2.12922L7.75321 2.0824C7.78464 2.04762 7.82076 2.01886 7.86089 1.99545L7.9338 1.9687L8.04751 1.92188H8.3291C8.58059 1.94796 8.80199 2.09846 8.9177 2.3232L10.4019 5.31303C10.5089 5.53175 10.717 5.68358 10.9571 5.72037L14.2813 6.20262C14.5623 6.24275 14.797 6.43672 14.89 6.70427C14.9776 6.97249 14.9021 7.26679 14.696 7.46009L12.1945 9.82788Z" fill="#FFC107"/>
</svg>
