<svg width="87" height="96" viewBox="0 0 87 96" fill="none" xmlns="http://www.w3.org/2000/svg">
<path d="M42.4972 2.09423C42.6596 0.606611 44.6438 0.606611 44.8062 2.09423L46.1673 14.574C47.9249 30.6887 59.6035 43.394 74.4159 45.306L85.8872 46.7868C87.2547 46.9635 87.2547 49.1221 85.8872 49.2988L74.4159 50.7796C59.6035 52.6916 47.9249 65.3969 46.1673 81.5115L44.8062 93.9912C44.6438 95.479 42.6596 95.479 42.4972 93.9912L41.1361 81.5115C39.3786 65.3969 27.7 52.6916 12.8875 50.7796L1.41618 49.2988C0.0487735 49.1221 0.0487735 46.9635 1.41618 46.7868L12.8875 45.306C27.7 43.394 39.3786 30.6887 41.1361 14.574L42.4972 2.09423Z" fill="#FFC107"/>
</svg>
